<svg xmlns="http://www.w3.org/2000/svg" viewBox="0 0 400 700" preserveAspectRatio="xMidYMid meet">
  <!-- NYC Vector Map - No API Key Required -->
  <defs>
    <!-- Water gradient -->
    <linearGradient id="waterGradient" x1="0%" y1="0%" x2="0%" y2="100%">
      <stop offset="0%" style="stop-color:#a8dadc;stop-opacity:1" />
      <stop offset="100%" style="stop-color:#457b9d;stop-opacity:1" />
    </linearGradient>

    <!-- Land gradient -->
    <linearGradient id="landGradient" x1="0%" y1="0%" x2="0%" y2="100%">
      <stop offset="0%" style="stop-color:#f1faee;stop-opacity:1" />
      <stop offset="100%" style="stop-color:#e8f4ea;stop-opacity:1" />
    </linearGradient>

    <!-- Grid pattern for streets -->
    <pattern id="streets" width="20" height="20" patternUnits="userSpaceOnUse">
      <path d="M 20 0 L 0 0 0 20" fill="none" stroke="rgba(100,100,100,0.08)" stroke-width="0.5"/>
    </pattern>
  </defs>

  <!-- Background water (rivers/harbor) -->
  <rect width="400" height="700" fill="url(#waterGradient)"/>

  <!-- Manhattan (simplified shape) -->
  <path d="M 180 50
           L 185 80
           L 190 120
           L 195 180
           L 200 250
           L 210 320
           L 215 380
           L 220 440
           L 230 480
           L 240 510
           L 250 530
           L 255 550
           L 250 560
           L 245 565
           L 230 570
           L 220 572
           L 210 570
           L 200 565
           L 195 555
           L 190 530
           L 185 490
           L 180 440
           L 175 380
           L 170 310
           L 165 240
           L 162 180
           L 160 120
           L 165 80
           L 170 60
           Z"
        fill="url(#landGradient)"
        stroke="#a7c957"
        stroke-width="1.5"
        opacity="0.95"/>

  <!-- Street grid overlay on Manhattan -->
  <path d="M 180 50
           L 185 80
           L 190 120
           L 195 180
           L 200 250
           L 210 320
           L 215 380
           L 220 440
           L 230 480
           L 240 510
           L 250 530
           L 255 550
           L 250 560
           L 245 565
           L 230 570
           L 220 572
           L 210 570
           L 200 565
           L 195 555
           L 190 530
           L 185 490
           L 180 440
           L 175 380
           L 170 310
           L 165 240
           L 162 180
           L 160 120
           L 165 80
           L 170 60
           Z"
        fill="url(#streets)"
        opacity="0.6"/>

  <!-- Brooklyn (western part) -->
  <path d="M 250 560
           L 270 565
           L 290 570
           L 310 580
           L 320 590
           L 325 600
           L 325 620
           L 320 635
           L 310 645
           L 295 650
           L 280 652
           L 260 650
           L 245 645
           L 240 635
           L 235 620
           L 235 600
           L 240 580
           L 245 570
           Z"
        fill="url(#landGradient)"
        stroke="#a7c957"
        stroke-width="1.5"
        opacity="0.95"/>

  <!-- Queens (western part) -->
  <path d="M 255 400
           L 280 395
           L 305 395
           L 325 400
           L 340 410
           L 350 425
           L 355 445
           L 355 470
           L 350 490
           L 340 505
           L 325 515
           L 305 520
           L 285 520
           L 265 515
           L 250 505
           L 240 490
           L 235 470
           L 240 445
           Z"
        fill="url(#landGradient)"
        stroke="#a7c957"
        stroke-width="1.5"
        opacity="0.95"/>

  <!-- The Bronx (southern part) -->
  <path d="M 185 40
           L 210 35
           L 230 38
           L 245 45
           L 255 55
           L 260 70
           L 260 90
           L 255 110
           L 245 125
           L 230 135
           L 215 140
           L 200 138
           L 190 130
           L 185 115
           L 182 95
           L 182 70
           Z"
        fill="url(#landGradient)"
        stroke="#a7c957"
        stroke-width="1.5"
        opacity="0.95"/>

  <!-- New Jersey (western shore) -->
  <path d="M 40 200
           L 50 180
           L 60 170
           L 75 165
           L 90 165
           L 105 170
           L 115 180
           L 120 200
           L 122 230
           L 120 270
           L 115 310
           L 110 350
           L 105 390
           L 100 425
           L 95 455
           L 90 480
           L 85 500
           L 75 515
           L 60 525
           L 45 530
           L 35 530
           L 25 520
           L 20 500
           L 22 475
           L 25 445
           L 28 410
           L 30 370
           L 32 330
           L 35 285
           L 37 245
           Z"
        fill="url(#landGradient)"
        stroke="#a7c957"
        stroke-width="1.5"
        opacity="0.9"/>

  <!-- Hudson River (between NJ and Manhattan) -->
  <path d="M 120 200
           L 125 230
           L 127 270
           L 125 310
           L 120 350
           L 115 390
           L 110 425
           L 105 455
           L 100 480
           L 95 500
           M 160 120
           L 162 180
           L 165 240
           L 170 310
           L 175 380
           L 180 440
           L 185 490
           L 190 530"
        fill="none"
        stroke="#457b9d"
        stroke-width="15"
        opacity="0.6"/>

  <!-- East River (between Manhattan and Brooklyn/Queens) -->
  <path d="M 190 530
           L 200 535
           L 215 540
           L 235 545
           M 215 380
           L 230 385
           L 245 390
           M 240 490
           L 225 495
           L 210 500"
        fill="none"
        stroke="#457b9d"
        stroke-width="12"
        opacity="0.6"/>

  <!-- Central Park -->
  <ellipse cx="188" cy="280" rx="12" ry="35" fill="#6a994e" opacity="0.7"/>

  <!-- Prospect Park (Brooklyn) -->
  <ellipse cx="285" cy="610" rx="8" ry="12" fill="#6a994e" opacity="0.7"/>

  <!-- Major landmarks as dots -->
  <!-- Times Square area -->
  <circle cx="195" cy="300" r="2" fill="#e63946" opacity="0.8"/>

  <!-- Financial District -->
  <circle cx="230" cy="555" r="2" fill="#e63946" opacity="0.8"/>

  <!-- Brooklyn Bridge area -->
  <circle cx="235" cy="540" r="1.5" fill="#457b9d" opacity="0.7"/>

  <!-- Williamsburg Bridge area -->
  <circle cx="245" cy="480" r="1.5" fill="#457b9d" opacity="0.7"/>

  <!-- Street labels (optional - keeping minimal) -->
  <text x="205" y="285" font-family="Arial, sans-serif" font-size="6" fill="#2d3436" opacity="0.5">Central Park</text>
  <text x="170" y="555" font-family="Arial, sans-serif" font-size="6" fill="#2d3436" opacity="0.5">Downtown</text>
  <text x="175" y="320" font-family="Arial, sans-serif" font-size="6" fill="#2d3436" opacity="0.5">Midtown</text>
  <text x="270" y="610" font-family="Arial, sans-serif" font-size="6" fill="#2d3436" opacity="0.5">Brooklyn</text>
  <text x="310" cy="460" font-family="Arial, sans-serif" font-size="6" fill="#2d3436" opacity="0.5">Queens</text>

  <!-- Neighborhood boundaries (subtle lines) -->
  <!-- Uptown/Midtown divide -->
  <line x1="165" y1="200" x2="195" y2="200" stroke="#95a5a6" stroke-width="0.5" stroke-dasharray="2,2" opacity="0.3"/>

  <!-- Midtown/Downtown divide -->
  <line x1="180" y1="380" x2="210" y2="380" stroke="#95a5a6" stroke-width="0.5" stroke-dasharray="2,2" opacity="0.3"/>
</svg>
